<svg xmlns="http://www.w3.org/2000/svg" width="960" height="720" viewBox="0 0 960 720"><g fill="none" stroke="#222" stroke-width="2"><rect x="8" y="8" width="944" height="704"/><rect x="20" y="20" width="920" height="48"/><rect x="35" y="34" width="110" height="20"/><rect x="660" y="34" width="260" height="20"/><rect x="20" y="80" width="450" height="240"/><rect x="490" y="80" width="450" height="240"/><rect x="45" y="105" width="140" height="12"/><rect x="45" y="135" width="340" height="62"/><rect x="45" y="215" width="360" height="34"/><rect x="45" y="268" width="150" height="35"/><circle cx="715" cy="197" r="90"/><rect x="20" y="332" width="920" height="105"/><rect x="38" y="350" width="285" height="67"/><rect x="338" y="350" width="285" height="67"/><rect x="638" y="350" width="285" height="67"/><rect x="20" y="449" width="920" height="130"/><rect x="38" y="467" width="210" height="94"/><rect x="268" y="467" width="210" height="94"/><rect x="498" y="467" width="210" height="94"/><rect x="728" y="467" width="194" height="94"/><rect x="20" y="591" width="920" height="72"/><rect x="38" y="608" width="420" height="38"/><rect x="490" y="608" width="432" height="38"/><rect x="20" y="675" width="920" height="25"/></g><g font-family="Arial" font-size="10" fill="#222"><text x="440" y="51">HEADER / NAVIGATION</text><text x="196" y="306">HERO COPY</text><text x="687" y="303">HERO VISUAL</text><text x="438" y="346">THREE STEPS</text><text x="440" y="463">FEATURED CARDS</text><text x="431" y="605">TRAINER PROFILE</text><text x="450" y="693">FOOTER</text></g></svg>
